<?xml version="1.0" encoding="utf-8"?>
<!-- Generator: Adobe Illustrator 23.0.3, SVG Export Plug-In . SVG Version: 6.00 Build 0)  -->
<svg version="1.1" id="Layer_1" xmlns="http://www.w3.org/2000/svg" xmlns:xlink="http://www.w3.org/1999/xlink" x="0px" y="0px"
	 viewBox="0 0 133.5 132.5" style="enable-background:new 0 0 133.5 132.5;" xml:space="preserve">
<path d="M62.3,1.3c-6.9,7.1-13.8,14.1-20.7,21.2C30.7,33.7,19.8,44.9,8.8,56.1c-2.5,2.6-5,5.2-7.6,7.7c-1.7,1.7-1.7,4.5,0,6.2
	C8,77,14.8,83.9,21.6,90.8c10.8,11,21.6,22,32.4,33c2.5,2.5,4.9,5,7.4,7.5c4,4.1,10.2-2.2,6.2-6.2c-6.8-6.9-13.6-13.8-20.3-20.7
	c-10.8-11-21.6-22-32.4-33c-2.5-2.5-4.9-5-7.4-7.5c0,2.1,0,4.2,0,6.2C14.4,63,21.3,56,28.2,48.9C39.1,37.7,50.1,26.5,61,15.3
	c2.5-2.6,5-5.2,7.6-7.7C72.5,3.5,66.3-2.7,62.3,1.3L62.3,1.3z"/>
<path d="M7.5,71.2c13.7,0,27.4,0,41.2,0c21.9,0,43.7,0,65.6,0c5,0,10,0,15,0c5.7,0,5.7-8.8,0-8.8c-13.7,0-27.4,0-41.2,0
	c-21.9,0-43.7,0-65.6,0c-5,0-10,0-15,0C1.8,62.4,1.8,71.2,7.5,71.2L7.5,71.2z"/>
</svg>
