<?xml version="1.0" encoding="utf-8"?>
<!-- Generator: Adobe Illustrator 23.0.3, SVG Export Plug-In . SVG Version: 6.00 Build 0)  -->
<svg version="1.1" id="Layer_1" xmlns="http://www.w3.org/2000/svg" xmlns:xlink="http://www.w3.org/1999/xlink" x="0px" y="0px"
	 viewBox="0 0 171.2 193.7" style="enable-background:new 0 0 171.2 193.7;" xml:space="preserve">
<g>
	<path d="M154,148.6c-9.1,0-18.1,0-27.2,0c-18.5,0-37.1,0-55.6,0c-15.2,0-30.5,0-45.7,0c-2.4,0-4.8-0.1-7.2,0
		c-1,0.1,1.4,0.2,0.7,0.1c-0.5-0.1-1-0.2-1.5-0.3c-0.6-0.1-1.3-0.3-1.9-0.5c-0.4-0.1-0.7-0.2-1.1-0.4c-1.2-0.4,0.7,0.4-0.1,0
		c-0.7-0.4-1.4-0.8-2.1-1.2c-0.7-0.4,0.8,0.8-0.1-0.1c-0.2-0.2-1.2-1.3-0.7-0.6c0.6,0.7-0.3-0.5-0.4-0.7c-0.7-0.9,0.1,0.7-0.1-0.1
		c-0.1-0.5-0.2-0.9-0.3-1.4c0.3,1.5,0.1-0.2,0.1-0.7c0-1.2-0.2,0.6,0.1-0.8c0.2-0.7,0.4-1.3,0.6-1.9c0.3-0.9-0.3,0.6,0.1-0.3
		c0.1-0.3,0.3-0.6,0.4-0.8c0.2-0.5,0.5-0.9,0.7-1.4c0.5-1.1-0.9,0.9-0.2,0.3c0.3-0.3,0.6-0.6,0.9-0.9c1.8-1.7,3.7-3.3,5.3-5.2
		c7-7.8,11.1-17.6,13.4-27.7c1.3-5.8,2.3-11.7,2.4-17.7c0.1-2.7,0.1-5.4,0.3-8.1c0.1-1.6,0.2-3.3,0.4-4.9c0.1-0.9,0.2-1.7,0.3-2.6
		c-0.2,1.7,0,0.1,0-0.2c0.1-0.5,0.2-1,0.2-1.5c0.6-3.9,1.5-7.8,2.7-11.5c0.3-0.9,0.6-1.8,0.9-2.7c0.2-0.5,0.4-1,0.6-1.4
		c0.1-0.2,0.2-0.5,0.3-0.7c0.3-0.6-0.4,1,0,0c0.9-1.9,1.8-3.8,2.9-5.7c0.5-0.9,1.1-1.8,1.7-2.7c0.3-0.5,0.6-0.9,0.9-1.3
		c0.2-0.2,0.3-0.4,0.5-0.7c0.1-0.1,0.8-1.1,0.3-0.4c-0.4,0.5,0.6-0.8,0.8-0.9c0.3-0.4,0.6-0.7,1-1.1c0.9-1,1.7-1.9,2.7-2.8
		c0.8-0.8,1.6-1.5,2.5-2.2c0.2-0.2,0.5-0.4,0.7-0.6c0.6-0.5-0.7,0.5,0,0c0.6-0.4,1.1-0.8,1.7-1.2c2.1-1.4,4.3-2.7,6.6-3.8
		c0.6-0.3,1.2-0.6,1.8-0.8c0.1-0.1,0.9-0.4,0.1-0.1c0.3-0.1,0.6-0.3,1-0.4c1.3-0.5,2.7-1,4-1.4c3-0.9,6.2-1.7,9.3-2.2
		c3.1-0.5,6.5-0.8,10.1-0.4c0.4,0,1.5,0.4,1.8,0.2c-0.3,0.2-1.5-0.2-0.3,0c0.4,0.1,0.8,0.1,1.1,0.2c1.5,0.2,3,0.5,4.5,0.9
		c3.3,0.8,6.6,1.8,9.8,3.1c0.2,0.1,0.4,0.2,0.6,0.3c0,0-1.1-0.5-0.5-0.2c0.4,0.2,0.8,0.4,1.3,0.6c0.9,0.4,1.8,0.9,2.7,1.3
		c1.7,0.9,3.4,1.9,5,3c0.8,0.6,1.6,1.2,2.5,1.7c-1-0.7,0.1,0,0.4,0.3c0.5,0.4,0.9,0.7,1.3,1.1c1.6,1.4,3.1,2.9,4.6,4.5
		c0.4,0.4,0.7,0.8,1.1,1.3c0.2,0.2,0.4,0.4,0.5,0.7c0.5,0.6-0.5-0.7-0.1-0.1c0.7,1,1.5,2,2.1,3c1.3,2.1,2.5,4.2,3.6,6.4
		c0.3,0.6,0.5,1.2,0.8,1.8c-0.4-1,0.3,0.8,0.4,1c0.5,1.3,0.9,2.6,1.3,3.9c0.9,2.9,1.6,5.9,2.1,8.8c0.5,2.9,0.8,5.6,1,9
		c0.2,3.5,0,7,0.1,10.5c0.3,12.4,3.4,25.6,10,36.2c1.8,3,4,5.9,6.5,8.4c1.1,1.1,2.4,2.2,3.6,3.2c0,0,1.4,1.3,0.8,0.6
		c-0.4-0.5-0.2,0,0,0.1c0.1,0,0.2,0.3,0.3,0.4c0.4,0.4-0.7-1.1-0.3-0.4c0.9,1.5,1.8,2.8,2.5,4.4c-0.7-1.4-0.1-0.1,0.1,0.3
		c0.1,0.4,0.3,0.9,0.4,1.3c0.2,0.7-0.1,1.6,0.1,0.3c-0.1,0.5,0,1.1,0,1.6c0.1,1.2,0.3-0.6,0,0.1c-0.2,0.5-0.5,1.4,0,0.4
		c-0.2,0.4-0.5,0.9-0.7,1.3c0.6-1.1-0.1,0.1-0.5,0.4c-0.2,0.2-0.4,0.4-0.7,0.6c0.2-0.2,0.8-0.5,0,0c-0.6,0.3-1.2,0.7-1.8,1
		c-0.8,0.4-2.7,1-4.2,1.3c-6.8,1.7-3.9,12.1,2.9,10.4c6.5-1.6,13.2-5.1,15.2-11.9c1.4-4.8,0.1-9.9-2.2-14.2c-0.9-1.7-2.1-3.5-3.4-5
		c-1-1.1-1.8-1.6-2.7-2.3c-1.3-1.2-2.6-2.4-3.7-3.8c-3.7-4.4-6.4-10.5-8.2-16.2c-1-3.1-1.7-6.3-2.3-9.5c-0.1-0.7-0.2-1.4-0.3-2.2
		c0.1,0.9-0.1-0.8-0.1-1.2c-0.2-1.5-0.3-2.9-0.3-4.4c-0.3-7.2-0.1-14.2-1.2-21.4c-1.7-11.6-6.1-22.7-13.4-31.9
		c-10.3-12.9-26.1-19.8-42.2-21.9C81,12.2,71,14.2,62.2,17.7c-10.5,4.1-19.3,10.8-25.8,20C26.9,51,24.2,67.9,23.8,84
		c-0.1,3.9-0.4,7.8-1,11.7c-0.6,3.7-1.4,7.3-2.5,10.8c-0.4,1.4-0.9,2.8-1.4,4.2c-0.2,0.6-0.5,1.3-0.8,1.9c0.4-0.9,0-0.1,0,0.1
		c-0.2,0.4-0.4,0.9-0.6,1.3c-1,2.1-2.1,4.1-3.4,6.1c-0.5,0.8-1.1,1.6-1.7,2.3c-0.4,0.6,0.7-0.8,0.2-0.3c-0.1,0.2-0.3,0.3-0.4,0.5
		c-0.3,0.4-0.6,0.7-0.9,1.1c-1.7,2-3.7,3.7-5.6,5.5c-6.6,6.4-8.3,18.7-0.8,25c3.8,3.2,8.9,5.1,13.9,5.2c11.6,0.3,23.2,0,34.8,0
		c19.5,0,39,0,58.5,0c13.3,0,26.5,0,39.8,0c0.7,0,1.4,0,2.1,0C160.9,159.4,160.9,148.6,154,148.6z"/>
	<path d="M90.8,17.8c0-4.2,0-8.4,0-12.6c0-7-10.8-7-10.8,0c0,4.2,0,8.4,0,12.6C80,24.8,90.8,24.8,90.8,17.8L90.8,17.8z"/>
	<path d="M61.1,169.8c0.4,7,3.5,14.4,9.1,18.8c8.2,6.6,21.1,6.8,29.8,0.9c6.7-4.6,9.8-11.8,10.7-19.6c0.4-2.9-2.7-5.4-5.4-5.4
		c-3.2,0-5.1,2.5-5.4,5.4c-0.3,2.3-1.1,4.9-2,6.5c-0.3,0.5-0.6,1-0.9,1.5c-0.3,0.5,0.1,0,0.1-0.1c-0.1,0.2-0.3,0.4-0.5,0.5
		c-0.4,0.4-0.7,0.8-1.1,1.2c-0.3,0.3-1.5,1.2-0.6,0.6c-0.7,0.5-1.5,1-2.3,1.4c-0.5,0.2-1.4,0.6-0.3,0.2c-0.5,0.2-0.9,0.4-1.4,0.5
		c-0.7,0.2-1.5,0.4-2.3,0.6c-0.4,0.1-0.8,0.1-1.2,0.2c0.9-0.2,0.9-0.1,0.1,0c-0.6,0-1.2,0.1-1.9,0.1c-1.5,0-2.2,0-3-0.2
		c-0.6-0.1-1.2-0.3-1.8-0.4c-0.3-0.1-1.6-0.6-1.2-0.4c0.5,0.2-0.6-0.3-0.8-0.4c-0.5-0.3-1-0.6-1.5-0.9c-0.5-0.3,0.2,0.2,0.2,0.2
		c-0.2-0.2-0.4-0.4-0.6-0.5c-0.3-0.3-0.6-0.6-0.9-0.9c-0.3-0.3-0.6-0.7-0.9-1.1c-0.4-0.5,0.2,0.3,0.2,0.3c-0.2-0.3-0.4-0.5-0.5-0.8
		c-0.4-0.7-0.8-1.4-1.2-2.1c-0.1-0.2-0.6-1.4-0.3-0.6c0.3,0.8-0.2-0.6-0.3-0.8c-0.5-1.3-0.8-2.7-1-4c-0.3-1.5,0.1,1.4,0,0.1
		c0-0.2,0-0.3,0-0.5c-0.2-2.9-2.4-5.4-5.4-5.4C63.7,164.4,60.9,166.8,61.1,169.8L61.1,169.8z"/>
</g>
</svg>
