<?xml version="1.0" encoding="utf-8"?>
<!-- Generator: Adobe Illustrator 23.0.3, SVG Export Plug-In . SVG Version: 6.00 Build 0)  -->
<svg version="1.1" id="Layer_1" xmlns="http://www.w3.org/2000/svg" xmlns:xlink="http://www.w3.org/1999/xlink" x="0px" y="0px"
	 viewBox="0 0 218.8 186.2" style="enable-background:new 0 0 218.8 186.2;" xml:space="preserve">
<g>
	<path d="M7.7,87.5c10.9-8.6,21.8-17.1,32.7-25.7C58,48,75.6,34.1,93.3,20.3c4.3-3.3,8.5-6.7,12.8-10c1.1-0.9-1.3,0.7,0.1,0
		c0.5-0.3,0.9-0.5,1.4-0.7c-0.8,0.4,0.1,0,0.3-0.1c0.4-0.1,0.8-0.2,1.2-0.3c1.4-0.3,3.5-0.1,5.1,0.7c1.1,0.5,2.1,1.3,3,2
		c0.4,0.3,0.9,0.6,1.3,1c0.3,0.2,0.5,0.4,0.8,0.6c0.2,0.1,0.3,0.2,0.5,0.4c0.6,0.5-0.9-0.7-0.2-0.2c16.8,13.1,33.4,26.6,50,40.1
		c13.7,11.1,27.4,22.3,41.1,33.4c0.2,0.2,0.5,0.4,0.7,0.6c1.9,1.5,4.5,1.8,6.4,0c1.6-1.6,1.9-4.8,0-6.4c-11.9-9.7-23.7-19.3-35.6-29
		c-17.7-14.3-35.3-28.7-53.2-42.8c-2.4-1.9-4.9-3.8-7.4-5.7c-5.5-4-12.4-5-18.6-1.9c-3.7,1.9-7,5.2-10.2,7.7
		C75.5,22.8,58.6,36.1,41.7,49.4C28.5,59.8,14.9,69.9,2,80.6c-0.2,0.2-0.4,0.3-0.7,0.5c-1.9,1.5-1.6,4.8,0,6.4
		C3.2,89.4,5.8,89,7.7,87.5L7.7,87.5z"/>
	<path d="M27.8,63.6c0,11.2,0,22.4,0,33.6c0,19.2,0,38.3,0,57.5c0,5.8,0,11.5,0,17.3c0,0.6,0,1.2,0,1.7c0.1,1.1,0.1-0.5,0.1-0.6
		c-1,5.2,1.4,10.1,6.7,11.8c4.3,1.3,9.9,0.6,14.3,0.6c7.5,0,15.1,0,22.6,0c20.1,0,40.3,0,60.4,0c14.8,0,29.6,0,44.4,0
		c3.9,0,7.5-0.1,11-2.3c4.1-2.7,5.8-7,5.8-11.8c0-1.6,0-3.3,0-4.9c0-15.4,0-30.8,0-46.2c0-20.2,0-40.4,0-60.6c0-12.9,0-25.8,0-38.7
		c0-0.6,0-1.3,0-1.9c0-5.8-9-5.8-9,0c0,9,0,17.9,0,26.9c0,19.2,0,38.3,0,57.5c0,17.7,0,35.5,0,53.2c0,4.7,0,9.4,0,14.1
		c0,0.5,0,1,0,1.4c0,0.7-0.1,1.6-0.3,2c-0.1,0.2-0.5,0.7-0.3,0.6c-0.2,0.2-0.4,0.4-0.6,0.6c-0.4,0.4,0.5-0.3-0.2,0.1
		c-0.4,0.3-0.8,0.5-1.3,0.7c1-0.5-0.3,0.1-0.6,0.2c-0.3,0.1-0.7,0.2-1,0.2c-1.1,0.3,0.4,0,0.2,0c-0.1,0-0.4,0-0.6,0
		c-11.2-0.3-22.5,0-33.7,0c-19.9,0-39.8,0-59.7,0c-14.6,0-29.2,0-43.8,0c-1.6,0-3.5,0.1-4.8-0.1c-0.1,0-1.1-0.3-0.6-0.1
		c0.4,0.2-0.3-0.2-0.4-0.2c-0.1-0.1,0.2,0.1,0.1,0.2c0,0-0.5-0.8-0.1-0.1c0.3,0.6,0,0.1,0-0.1c-0.2-0.9-0.1,1-0.1-0.3
		c0-0.2,0.1-0.6,0-0.8c-0.1-0.4-0.2,1.4-0.1,0.6c0.1-0.4,0.2-0.9,0.2-1.3c0.2-3.6,0-7.2,0-10.8c0-17.8,0-35.5,0-53.3
		c0-14.7,0-29.4,0-44.2c0-0.8,0-1.6,0-2.4C36.8,57.8,27.8,57.8,27.8,63.6L27.8,63.6z"/>
	<path d="M90.1,180.4c0-10.9,0-21.9,0-32.8c0-7.3,0-14.6,0-21.8c0-2.3,0-4.6,0-6.9c0-0.5,0-1.1,0-1.6c0-0.1,0-0.2,0-0.3
		c0-0.3-0.1-0.9-0.2-1.2c-0.1-0.5,0,1.4,0.1,0.9c0.1-0.3,0-0.8,0-1.2c-0.1-1,0.1,0.9,0,0.1c0-0.4,0.6-1.4,0-0.3
		c0.2-0.3,0.3-0.6,0.5-0.8c-0.7,1,0.4-0.4,0.1,0c-0.1,0.1,0.1,0,0.1-0.1c0.6-0.2,1-0.3,1.4-0.3c3.8-0.4,7.8,0,11.7,0
		c8.1,0,16.2,0,24.2,0c0.8,0,1.5,0,2.4-0.2c-1.5,0.2-0.3-0.2-0.1,0.1c0,0,0.3,0,0.3,0c0.5-0.1-0.6,0-0.6-0.1c0,0,0.6,0.1,0.5,0.1
		c0.7-0.1-0.4,0-0.3-0.2c0.2-0.2,0.8,0.7,0.3,0.1c0.3,0.4-0.1-0.2-0.1-0.2c0,0.2,0.3,0.3,0.3,0.5c0-0.1,0.1,0.4,0.1,0.3
		c0,0.5,0.1,1,0.1,1.5c0,0.8,0,1.6,0,2.4c0,6.7,0,13.4,0,20.1c0,13.7-0.2,27.4,0,41.1c0,0.3,0,0.6,0,0.8c0,5.8,9,5.8,9,0
		c0-12.6,0-25.2,0-37.8c0-7.6,0-15.1,0-22.7c0-2.8,0.3-5.8-0.6-8.5c-1.4-4.3-5.3-6.9-9.8-6.5c-2.8,0.2-0.5-0.1-0.3,0
		c-0.1-0.1-0.6,0-0.8,0c-1.3,0-2.6,0-3.9,0c-4.5,0-9,0-13.5,0c-4.7,0-9.3,0-14,0c-4.7,0-9.9-0.2-13.3,3.6c-2.5,2.7-3,6.1-2.5,9.6
		c-0.3-2.3-0.1-1-0.2-0.4c0,0.8,0,1.5,0,2.3c0,6.4,0,12.8,0,19.3c0,13.4-0.2,26.9,0,40.3c0,0.3,0,0.5,0,0.8
		C81.1,186.2,90.1,186.2,90.1,180.4L90.1,180.4z"/>
</g>
</svg>
