<?xml version="1.0" encoding="utf-8"?>
<!-- Generator: Adobe Illustrator 23.0.3, SVG Export Plug-In . SVG Version: 6.00 Build 0)  -->
<svg version="1.1" id="Layer_2" xmlns="http://www.w3.org/2000/svg" xmlns:xlink="http://www.w3.org/1999/xlink" x="0px" y="0px"
	 viewBox="0 0 380 286" style="enable-background:new 0 0 380 286;" xml:space="preserve">
<g>
	<path d="M367.5,261.5c-11.8,0-23.5,0-35.3,0c-28.2,0-56.5,0-84.7,0c-34.2,0-68.3,0-102.5,0c-29.6,0-59.1,0-88.7,0
		c-14.3,0-29-1.1-43.2,0c-0.2,0-0.4,0-0.6,0c4,4,8,8,12,12c0-29.4,0-58.8,0-88.2c0-46.9,0-93.7,0-140.6c0-10.7,0-21.4,0-32.2
		c-4,4-8,8-12,12c11.8,0,23.5,0,35.3,0c28.2,0,56.5,0,84.7,0c34.2,0,68.3,0,102.5,0c29.6,0,59.1,0,88.7,0c14.3,0,29,1.1,43.2,0
		c0.2,0,0.4,0,0.6,0c-4-4-8-8-12-12c0,29.4,0,58.8,0,88.2c0,46.9,0,93.7,0,140.6c0,10.7,0,21.4,0,32.2c0,15.4,24,15.5,24,0
		c0-29.4,0-58.8,0-88.2c0-46.9,0-93.7,0-140.6c0-10.7,0-21.4,0-32.2c0-6.5-5.5-12-12-12c-11.8,0-23.5,0-35.3,0
		c-28.2,0-56.5,0-84.7,0c-34.2,0-68.3,0-102.5,0c-29.6,0-59.1,0-88.7,0c-14.4,0-28.8-0.5-43.2,0c-0.2,0-0.4,0-0.6,0
		c-6.5,0-12,5.5-12,12c0,29.4,0,58.8,0,88.2c0,46.9,0,93.7,0,140.6c0,10.7,0,21.4,0,32.2c0,6.5,5.5,12,12,12c11.8,0,23.5,0,35.3,0
		c28.2,0,56.5,0,84.7,0c34.2,0,68.3,0,102.5,0c29.6,0,59.1,0,88.7,0c14.4,0,28.8,0.5,43.2,0c0.2,0,0.4,0,0.6,0
		C382.9,285.5,383,261.5,367.5,261.5z"/>
	<path d="M113,95c-0.2,9.9-8,18-18,18c-9.8,0-18-8.1-18-18c0-9.9,8.1-18,18-18C105.1,77,112.8,85.2,113,95c0.3,15.4,24.3,15.5,24,0
		c-0.4-18-11.4-33.5-28.3-39.7c-15.8-5.8-34.7-0.5-45.5,12.4c-11.4,13.6-13.5,33.1-4.4,48.5c9.1,15.6,27.3,23.2,44.8,19.9
		c19.5-3.7,33-21.7,33.4-41.1C137.3,79.5,113.3,79.6,113,95z"/>
	<path d="M52.6,279.6c21.2-27.6,42.5-55.1,63.7-82.7c3-3.9,6-7.9,9.1-11.8c-6.3,0.8-12.6,1.6-18.8,2.4c17.7,21.7,35.3,43.3,53,65
		c4.1,5,12.7,4.3,17,0c5-5,4.1-11.9,0-17c-17.7-21.7-35.3-43.3-53-65c-5.4-6.7-14.6-3-18.8,2.4c-21.2,27.6-42.5,55.1-63.7,82.7
		c-3,3.9-6,7.9-9.1,11.8c-4,5.1-0.8,13.4,4.3,16.4C42.4,287.5,48.6,284.7,52.6,279.6L52.6,279.6z"/>
	<path d="M155.5,279.6c27.2-35.3,54.4-70.5,81.5-105.8c3.8-4.9,7.6-9.8,11.4-14.7c-6.3,0.8-12.6,1.6-18.8,2.4
		c28.4,35.2,56.7,70.5,85.1,105.7c4,4.9,7.9,9.9,11.9,14.8c4.1,5.1,12.7,4.2,17,0c5-5,4.1-11.9,0-17
		c-28.4-35.2-56.7-70.5-85.1-105.7c-4-4.9-7.9-9.9-11.9-14.8c-5.4-6.7-14.7-3-18.8,2.4c-27.2,35.3-54.4,70.5-81.5,105.8
		c-3.8,4.9-7.6,9.8-11.4,14.7c-4,5.1-0.8,13.4,4.3,16.4C145.2,287.5,151.5,284.7,155.5,279.6L155.5,279.6z"/>
</g>
</svg>
