<?xml version="1.0" encoding="utf-8"?>
<!-- Generator: Adobe Illustrator 23.0.3, SVG Export Plug-In . SVG Version: 6.00 Build 0)  -->
<svg version="1.1" id="Layer_1" xmlns="http://www.w3.org/2000/svg" xmlns:xlink="http://www.w3.org/1999/xlink" x="0px" y="0px"
	 viewBox="0 0 171.2 132.5" style="enable-background:new 0 0 171.2 132.5;" xml:space="preserve">
<g>
	<path d="M166.7,123.7c-5.4,0-10.7,0-16.1,0c-12.9,0-25.8,0-38.7,0c-15.7,0-31.4,0-47,0c-13.5,0-26.9,0-40.4,0c-4.5,0-8.9,0-13.4,0
		c-2.1,0-4.3-0.1-6.4,0c-0.1,0-0.2,0-0.3,0c1.4,1.4,2.9,2.9,4.3,4.3c0-4.1,0-8.2,0-12.3c0-9.8,0-19.6,0-29.5c0-11.9,0-23.9,0-35.8
		c0-10.3,0-20.6,0-30.8c0-4.9,0.4-10.1,0-15c0-0.1,0-0.1,0-0.2C7.4,5.9,5.9,7.3,4.5,8.8c5.4,0,10.7,0,16.1,0c12.9,0,25.8,0,38.7,0
		c15.7,0,31.4,0,47,0c13.5,0,26.9,0,40.4,0c4.5,0,8.9,0,13.4,0c2.1,0,4.3,0.1,6.4,0c0.1,0,0.2,0,0.3,0c-1.4-1.4-2.9-2.9-4.3-4.3
		c0,4.1,0,8.2,0,12.3c0,9.8,0,19.6,0,29.5c0,11.9,0,23.9,0,35.8c0,10.3,0,20.6,0,30.8c0,5-0.2,10,0,15c0,0.1,0,0.1,0,0.2
		c0,5.6,8.7,5.6,8.7,0c0-4.1,0-8.2,0-12.3c0-9.8,0-19.6,0-29.5c0-11.9,0-23.9,0-35.8c0-10.3,0-20.6,0-30.8c0-5,0.2-10,0-15
		c0-0.1,0-0.1,0-0.2c0-2.3-2-4.3-4.3-4.3c-5.4,0-10.7,0-16.1,0c-12.9,0-25.8,0-38.7,0c-15.7,0-31.4,0-47,0c-13.5,0-26.9,0-40.4,0
		c-6.6,0-13.2-0.2-19.8,0c-0.1,0-0.2,0-0.3,0c-2.3,0-4.3,2-4.3,4.3c0,4.1,0,8.2,0,12.3c0,9.8,0,19.6,0,29.5c0,11.9,0,23.9,0,35.8
		c0,10.3,0,20.6,0,30.8c0,5-0.2,10,0,15c0,0.1,0,0.1,0,0.2c0,2.3,2,4.3,4.3,4.3c5.4,0,10.7,0,16.1,0c12.9,0,25.8,0,38.7,0
		c15.7,0,31.4,0,47,0c13.5,0,26.9,0,40.4,0c6.6,0,13.2,0.2,19.8,0c0.1,0,0.2,0,0.3,0C172.3,132.4,172.3,123.7,166.7,123.7z"/>
	<path d="M109.6,45.6c9.2,0,18.3,0,27.5,0c1.3,0,2.6,0,3.9,0c5.6,0,5.6-8.7,0-8.7c-9.2,0-18.3,0-27.5,0c-1.3,0-2.6,0-3.9,0
		C104.1,37,104.1,45.6,109.6,45.6L109.6,45.6z"/>
	<path d="M109.6,65.2c9.2,0,18.3,0,27.5,0c1.3,0,2.6,0,3.9,0c5.6,0,5.6-8.7,0-8.7c-9.2,0-18.3,0-27.5,0c-1.3,0-2.6,0-3.9,0
		C104.1,56.5,104.1,65.2,109.6,65.2L109.6,65.2z"/>
	<path d="M109.6,85.4c9.2,0,18.3,0,27.5,0c1.3,0,2.6,0,3.9,0c5.6,0,5.6-8.7,0-8.7c-9.2,0-18.3,0-27.5,0c-1.3,0-2.6,0-3.9,0
		C104.1,76.7,104.1,85.4,109.6,85.4L109.6,85.4z"/>
	<circle cx="61.2" cy="46.4" r="19.5"/>
	<path d="M89.6,105.5H32.5c0,0-6.1,0.4-6.1-6.1s0-7.6,0-7.6s0.7-15.5,22.4-15.5c0,0,12.7,5.4,24.2,0c0,0,17.7-2.2,22,13.7
		c0,7.6,0,10.8,0,10.8S95.4,105.5,89.6,105.5z"/>
</g>
</svg>
