<?xml version="1.0" encoding="utf-8"?>
<!-- Generator: Adobe Illustrator 23.0.3, SVG Export Plug-In . SVG Version: 6.00 Build 0)  -->
<svg version="1.1" xmlns="http://www.w3.org/2000/svg" xmlns:xlink="http://www.w3.org/1999/xlink" x="0px" y="0px"
	 viewBox="0 0 359 359" style="enable-background:new 0 0 359 359;" xml:space="preserve">
<g id="Layer_1">
</g>
<g id="Layer_2">
	<path d="M344,164c-37.1,0-74.3,0-111.4,0c-59.1,0-118.2,0-177.3,0c-13.4,0-26.9,0-40.3,0c-7.8,0-15.4,6.9-15,15
		c0.4,8.1,6.6,15,15,15c37.1,0,74.3,0,111.4,0c59.1,0,118.2,0,177.3,0c13.4,0,26.9,0,40.3,0c7.8,0,15.4-6.9,15-15
		C358.6,170.9,352.4,164,344,164L344,164z"/>
	<path d="M164,15c0,37.1,0,74.3,0,111.4c0,59.1,0,118.2,0,177.3c0,13.4,0,26.9,0,40.3c0,7.8,6.9,15.4,15,15c8.1-0.4,15-6.6,15-15
		c0-37.1,0-74.3,0-111.4c0-59.1,0-118.2,0-177.3c0-13.4,0-26.9,0-40.3c0-7.8-6.9-15.4-15-15C170.9,0.4,164,6.6,164,15L164,15z"/>
</g>
</svg>
