<?xml version="1.0" encoding="utf-8"?>
<!-- Generator: Adobe Illustrator 23.0.3, SVG Export Plug-In . SVG Version: 6.00 Build 0)  -->
<svg version="1.1" id="Layer_1" xmlns="http://www.w3.org/2000/svg" xmlns:xlink="http://www.w3.org/1999/xlink" x="0px" y="0px"
	 viewBox="0 0 221 220" style="enable-background:new 0 0 221 220;" xml:space="preserve">
<style type="text/css">
	.st0{fill-rule:evenodd;clip-rule:evenodd;}
</style>
<g>
	<g>
		<path class="st0" d="M80,203.5c-8.8,0-54.8,0-54.8,0s-7.8-0.5-7.8-9.3s0-54.5,0-54.5s1-8-8-8c0,0-9.8-1.3-9.8,7.3v57.8
			c0,0,1.5,23.3,23.8,23.3s57.5,0,57.5,0s7,0.3,7-8.5C88,211.5,88.8,203.5,80,203.5z M211,131.8c-9,0-8,8-8,8s0,45.8,0,54.5
			s-7.8,9.3-7.8,9.3s-46,0-54.8,0s-8,8-8,8c0,8.8,7,8.5,7,8.5s35.3,0,57.5,0s23.8-23.3,23.8-23.3V139
			C220.8,130.5,211,131.8,211,131.8z M9.5,88.3c9,0,8-8,8-8s0-45.8,0-54.5s7.8-9.3,7.8-9.3s46,0,54.8,0s8-8,8-8C88-0.2,81,0,81,0
			S45.8,0,23.5,0S-0.3,23.3-0.3,23.3V81C-0.3,89.5,9.5,88.3,9.5,88.3z M197,0c-22.3,0-57.5,0-57.5,0s-7-0.3-7,8.5c0,0-0.8,8,8,8
			s54.8,0,54.8,0s7.8,0.5,7.8,9.3s0,54.5,0,54.5s-1,8,8,8c0,0,9.8,1.3,9.8-7.3V23.3C220.8,23.3,219.3,0,197,0z M57.6,72.7v77.8
			c0,8.4,6.9,15.4,15.4,15.4h76.3c8.4,0,15.4-6.9,15.4-15.4V72.7c0-8.4-6.9-15.4-15.4-15.4H73C64.4,57.4,57.6,64.1,57.6,72.7z
			 M75,74.8h73v73H75V74.8z M98.3,124.6h26.6V98.1H98.3V124.6z"/>
	</g>
</g>
</svg>
