<?xml version="1.0" encoding="utf-8"?>
<!-- Generator: Adobe Illustrator 23.0.3, SVG Export Plug-In . SVG Version: 6.00 Build 0)  -->
<svg version="1.1" id="Layer_1" xmlns="http://www.w3.org/2000/svg" xmlns:xlink="http://www.w3.org/1999/xlink" x="0px" y="0px"
	 viewBox="0 0 171.2 170.9" style="enable-background:new 0 0 171.2 170.9;" xml:space="preserve">
<g>
	<path d="M127.8,68.7c-0.1,24.2-15.5,46.8-38.2,55.1c-12,4.4-24.6,4.8-36.7,1.4c-11.4-3.3-21.4-9.9-29.2-19.2
		c-1-1.1-1.3-1.6-2.2-2.9c-1-1.3-1.9-2.7-2.7-4.1c-0.8-1.3-1.5-2.5-2.1-3.9c-0.7-1.3-1.5-3-1.8-3.8c-2.4-5.8-3.9-12.2-4.3-17.9
		C9.6,60.9,12.4,49,18.8,38.4C31.3,17.5,56.6,6.3,80.4,11.1c24.2,4.9,42.8,24.2,46.8,48.6c0.2,1.3,0.3,2.4,0.5,4.1
		C127.8,65.4,127.8,67.1,127.8,68.7c0,6.5,10.1,6.5,10,0C137.7,39.9,119.5,14,92.5,4.1C65.8-5.8,34.3,2.7,16.3,24.8
		C7.2,35.8,1.7,49.2,0.6,63.5c-1.2,14.1,2.3,28.7,9.7,40.8c15,24.8,44.5,37.5,72.8,31.8c27.3-5.5,49.6-28.6,53.9-56.2
		c0.6-3.7,0.9-7.4,0.9-11.2C137.9,62.3,127.8,62.3,127.8,68.7z"/>
	<path d="M110.3,117.6c5.9,5.8,11.7,11.7,17.6,17.5c9.3,9.3,18.7,18.6,28,27.9c2.1,2.1,4.3,4.3,6.4,6.4c4.6,4.6,11.7-2.5,7.1-7.1
		c-5.9-5.8-11.7-11.7-17.6-17.5c-9.3-9.3-18.7-18.6-28-27.9c-2.1-2.1-4.3-4.3-6.4-6.4C112.8,106,105.7,113.1,110.3,117.6
		L110.3,117.6z"/>
</g>
</svg>
