<?xml version="1.0" encoding="utf-8"?>
<!-- Generator: Adobe Illustrator 23.0.3, SVG Export Plug-In . SVG Version: 6.00 Build 0)  -->
<svg version="1.1" id="Layer_1" xmlns="http://www.w3.org/2000/svg" xmlns:xlink="http://www.w3.org/1999/xlink" x="0px" y="0px"
	 viewBox="0 0 263.2 262.5" style="enable-background:new 0 0 263.2 262.5;" xml:space="preserve">
<g>
	<path d="M258.9,237c-26.2-26.2-52.5-52.5-78.8-78.8C138.3,116.4,96.5,74.6,54.7,32.8c-9.5-9.5-19-19-28.5-28.5
		c-5.5-5.5-15.8-6-21.2,0s-5.9,15.3,0,21.2c26.2,26.2,52.5,52.5,78.8,78.8c41.8,41.8,83.6,83.6,125.4,125.4c9.5,9.5,19,19,28.5,28.5
		c5.5,5.5,15.8,6,21.2,0C264.3,252.2,264.8,242.9,258.9,237L258.9,237z"/>
	<path d="M237,4.3c-26.2,26.2-52.5,52.5-78.8,78.8c-41.8,41.8-83.6,83.6-125.4,125.4c-9.5,9.5-19,19-28.5,28.5
		c-5.5,5.5-6,15.8,0,21.2c6,5.4,15.3,5.9,21.2,0c26.2-26.2,52.5-52.5,78.8-78.8c41.8-41.8,83.6-83.6,125.4-125.4
		c9.5-9.5,19-19,28.5-28.5c5.5-5.5,6-15.8,0-21.2S242.9-1.6,237,4.3L237,4.3z"/>
</g>
</svg>
