<?xml version="1.0" encoding="utf-8"?>
<!-- Generator: Adobe Illustrator 23.0.3, SVG Export Plug-In . SVG Version: 6.00 Build 0)  -->
<svg version="1.1" id="Layer_1" xmlns="http://www.w3.org/2000/svg" xmlns:xlink="http://www.w3.org/1999/xlink" x="0px" y="0px"
	 viewBox="0 0 35 35" style="enable-background:new 0 0 35 35;" xml:space="preserve">
<style type="text/css">
	.st0{fill-rule:evenodd;clip-rule:evenodd;fill:#EB121E;}
</style>
<path class="st0" d="M34.4,15.3c-2,2-7.1,6.9-7.1,6.9L29,32c0,0,0.1,2.4-2.7,2c-2.9-1.5-8.7-4.6-8.7-4.6c0,0-5.9,3.1-8.7,4.6
	C6,34.4,6,32,6,32l1.6-9.7c0,0-5-4.9-7.1-6.9c-1.4-2.5,1.2-3.2,1.2-3.2l9.6-1.4c0,0,3.4-7.1,4.2-8.6C16.3,0.9,17.5,1,17.5,1
	c0,0,1.2-0.1,1.9,1.2c0.7,1.5,4.2,8.6,4.2,8.6l9.6,1.4C33.1,12.1,35.8,12.8,34.4,15.3z"/>
</svg>
