<?xml version="1.0" encoding="utf-8"?>
<!-- Generator: Adobe Illustrator 23.0.3, SVG Export Plug-In . SVG Version: 6.00 Build 0)  -->
<svg version="1.1" id="Layer_1" xmlns="http://www.w3.org/2000/svg" xmlns:xlink="http://www.w3.org/1999/xlink" x="0px" y="0px"
	 viewBox="0 0 221 195.6" style="enable-background:new 0 0 221 195.6;" xml:space="preserve">
<g>
	<path d="M45.3,41.3c6.8,0,13.7,0,20.5,0c15.5,0,30.9,0,46.4,0c16.1,0,32.3,0,48.4,0c9.1,0,18.2,0,27.3,0c0.7,0,1.5,0,2.2,0
		c1.5,0,3,0.1,4.5,0c1.3-0.1,2.8,0.1,0.1,0c0.1,0,0.1,0,0.2,0c0.3,0,0.6,0,0.9-0.1c0.9,0,1.9,0,2.8,0.1c1.6,0.1-1.3-0.3,0.4,0.1
		c0.7,0.2,1.4,0.3,2.1,0.5c0.3,0.1,0.7,0.2,1,0.3c1,0.3-1-0.6-0.1-0.1c0.7,0.4,1.4,0.8,2.2,1.2c1,0.6-0.2-0.2,0,0
		c0.3,0.3,0.6,0.6,0.9,0.9c0.3,0.3,0.6,0.6,0.9,1c0.5,0.5-0.3-0.3-0.3-0.4c0.2,0.3,0.4,0.5,0.5,0.8c0.2,0.4,0.5,0.8,0.7,1.3
		c0.2,0.4,0.5,1.4,0.2,0.4c0.4,1.2,0.8,2.4,1,3.6c0.1,0.3,0.1,0.6,0.2,0.9c0-0.2-0.1-0.7,0,0c0.1,0.7,0.1,1.4,0.1,2.1
		c0,0.8,0,1.7,0,2.5c0,3,0,6,0,9c0,8.4,0,16.8,0,25.2c0,18.5,0,37,0,55.5c0,7.3,0.5,14.9,0,22.2c0,0.4-0.2,2,0,0.7
		c0.2-1.3-0.1,0.6-0.2,1c-0.3,1.3-0.8,2.5-1.1,3.7c-0.1,0.3,0.6-1.2,0.1-0.2c-0.2,0.3-0.3,0.6-0.5,0.9c-0.4,0.7-0.9,1.4-1.3,2
		c-0.6,0.9,0.8-0.8,0,0c-0.3,0.3-0.5,0.6-0.8,0.9c-0.3,0.3-0.6,0.6-0.9,0.9c-0.2,0.2-1.3,1.1-0.7,0.6c0.7-0.5-0.5,0.3-0.7,0.4
		c-0.4,0.3-0.8,0.5-1.2,0.7c-0.4,0.2-0.9,0.5-1.3,0.7c-1.2,0.6,0.3,0-0.7,0.3c-1.1,0.4-2.2,0.7-3.3,1c-0.6,0.2-1.2,0.3-1.8,0.4
		c-0.3,0.1-0.6,0.1-1,0.2c-1.1,0.2,0.8-0.1-0.4,0.1c-3.6,0.4-7.3,0.3-10.9,0.3c-16.3,0-32.6,0-48.9,0c-19,0-37.9,0-56.9,0
		c-10.6,0-21.3,0-31.9,0c-1.8,0-3.6-0.1-5.3-0.2c-0.3,0-0.5-0.1-0.8-0.1c-1-0.1,1.6,0.3,0.6,0.1c-0.6-0.1-1.3-0.2-1.9-0.3
		c-1.3-0.3-2.7-0.6-4-0.9c-0.7-0.2-1.4-0.4-2-0.6c-0.3-0.1-0.7-0.2-1-0.4c-0.2-0.1-1.6-0.6-0.7-0.2c0.9,0.4-0.3-0.1-0.5-0.2
		c-0.4-0.2-0.7-0.3-1.1-0.5c-0.8-0.4-1.5-0.8-2.3-1.2c-0.7-0.4-1.4-0.9-2.1-1.3c-0.6-0.4-0.9-0.7-0.1,0c-0.4-0.3-0.8-0.6-1.2-1
		c-0.7-0.6-1.4-1.3-2.1-2c-0.3-0.3-0.6-0.7-0.9-1c-0.2-0.2-1.1-1.4-0.7-0.8c0.5,0.6-0.4-0.5-0.5-0.7c-0.3-0.4-0.5-0.8-0.8-1.2
		c-0.6-0.9-1.1-1.9-1.6-2.9c-0.2-0.4-0.6-1.4-0.2-0.5c-0.2-0.5-0.4-1-0.6-1.5c-0.4-1.2-0.8-2.4-1-3.6c-0.7-3-0.8-4-1-6.9
		c-0.1-2.6-0.1-5.2-0.1-7.7c0-5.3,0-10.5,0-15.8c0-22.1,0-44.3,0-66.4c0-8.4-0.4-17,0-25.4c0-0.8,0.2-1.6,0.2-2.4
		c0-0.4-0.3,1.8-0.1,0.7c0-0.2,0.1-0.5,0.1-0.7c0.1-0.6,0.2-1.1,0.3-1.7c0.3-1.2,0.6-2.4,1-3.5c0.2-0.6,0.4-1.2,0.6-1.8
		c0.1-0.2,0.6-1.3,0.1-0.3c-0.4,1,0.1-0.3,0.3-0.5c0.7-1.4,1.4-2.7,2.2-4c0.2-0.3,0.4-0.6,0.7-0.9c0.1-0.2,0.9-1.2,0.3-0.5
		c-0.6,0.7,0.3-0.3,0.4-0.5c0.3-0.4,0.6-0.7,1-1.1c0.6-0.6,1.2-1.2,1.8-1.8c0.3-0.3,0.7-0.6,1-0.9c0.2-0.1,0.3-0.3,0.5-0.4
		c0.7-0.5-0.9,0.6-0.2,0.1c1.7-1.1,3.4-2.2,5.2-3.1c0.5-0.2,0.9-0.4,1.4-0.7c-1,0.4,0.1-0.1,0.5-0.2c1.2-0.4,2.3-0.8,3.5-1.2
		c1.2-0.3,2.4-0.6,3.6-0.9c0.6-0.1,1.3-0.3,1.9-0.4c0.3,0,2-0.3,1.4-0.2c5.7-0.7,11.4-0.5,17.1-0.5c11.7,0,23.4,0,35.1,0
		c21.1,0,42.1,0,63.2,0c4.5,0,8.9,0,13.4,0c0.6,0,1.2,0,1.8,0c1.5,0-1.1-0.3-0.3-0.1c0.5,0.1,1,0.2,1.5,0.3c0.5,0.1,1,0.4,1.6,0.5
		c0.9,0.2-1.2-0.7-0.4-0.2c0.3,0.2,0.7,0.3,1,0.5c0.6,0.3,1.1,0.8,1.7,1.1c0.2,0.1-0.9-0.9-0.1-0.1c0.3,0.3,0.6,0.5,0.8,0.8
		c0.3,0.3,0.5,0.6,0.8,0.9c0.8,0.8-0.1-0.2,0.1,0.1c0.5,0.8,1,1.5,1.4,2.3c0.2,0.4,0.4,0.9,0.7,1.3c0.3,0.6-0.1-0.2-0.1-0.3
		c0.1,0.3,0.2,0.5,0.3,0.8c0.4,1.1,0.7,2.2,1,3.4c0.6,2.6,0.7,5,0.8,8.1c0.1,7.9,12.4,7.9,12.3,0c-0.1-10.6-2.7-21.9-12-28.2
		c-3.7-2.5-8.2-3.7-12.6-3.7c-12.8,0-25.6,0-38.4,0c-24.2,0-48.4,0-72.6,0C46.4,0,34.7,0,23.6,4.9C16,8.2,9.5,13.9,5.4,21.1
		c-3.9,6.8-5.3,14.4-5.3,22.1c0,16.7,0,33.5,0,50.2c0,11.9,0,23.9,0,35.8c0,5.6,0,11.1,0,16.7c0,5.7,0,11.4,1,17.1
		c3.1,17,16.6,29.1,33.4,31.9c6,1,11.9,0.8,18,0.8c16,0,32,0,47.9,0c19.6,0,39.1,0,58.7,0c7.5,0,14.9,0,22.4,0
		c9.2,0,18.9-0.1,26.9-5.3c6.3-4.1,10.8-10.7,12-18.2c0.4-2.6,0.5-5,0.5-7.6c0-13.8,0-27.6,0-41.4c0-18.8,0-37.6,0-56.4
		c0-8.4,0.8-17.2-2.8-25.1c-3.6-7.9-11.4-12-19.7-12.6c-0.9-0.1-1.9-0.1-2.8,0c-0.2,0-0.5,0-0.7,0.1c-0.1,0-0.1,0-0.2,0
		c-0.3,0-0.7,0.1-0.8,0.1c-2.3,0.3,0.8-0.1,0.7-0.1c-1.6-0.5-4.2,0-5.9,0c-2.6,0-5.3,0-7.9,0c-13.5,0-27,0-40.5,0
		c-17.2,0-34.5,0-51.7,0c-12.6,0-25.1,0-37.7,0c-1.9,0-3.7,0-5.6,0C37.3,29,37.3,41.3,45.3,41.3L45.3,41.3z"/>
	<circle cx="167.2" cy="111.4" r="12.8"/>
</g>
</svg>
